<svg xmlns="http://www.w3.org/2000/svg" width="512" height="512" viewBox="0 0 512 512">
  <defs>
    <linearGradient id="bg" x1="0%" y1="0%" x2="100%" y2="100%">
      <stop offset="0%" style="stop-color:#6366f1"/>
      <stop offset="100%" style="stop-color:#8b5cf6"/>
    </linearGradient>
  </defs>
  <rect width="512" height="512" rx="100" fill="url(#bg)"/>
  <rect x="150" y="140" width="30" height="30" rx="6" fill="none" stroke="white" stroke-width="4"/>
  <path d="M155 157 L165 167 L185 147" fill="none" stroke="white" stroke-width="4" stroke-linecap="round" stroke-linejoin="round"/>
  <rect x="200" y="145" width="180" height="20" rx="10" fill="rgba(255,255,255,0.9)"/>
  <rect x="150" y="220" width="30" height="30" rx="6" fill="none" stroke="white" stroke-width="4"/>
  <path d="M155 237 L165 247 L185 227" fill="none" stroke="white" stroke-width="4" stroke-linecap="round" stroke-linejoin="round"/>
  <rect x="200" y="225" width="140" height="20" rx="10" fill="rgba(255,255,255,0.9)"/>
  <rect x="150" y="300" width="30" height="30" rx="6" fill="none" stroke="white" stroke-width="4"/>
  <rect x="200" y="305" width="160" height="20" rx="10" fill="rgba(255,255,255,0.6)"/>
  <rect x="150" y="380" width="30" height="30" rx="6" fill="none" stroke="white" stroke-width="4"/>
  <rect x="200" y="385" width="120" height="20" rx="10" fill="rgba(255,255,255,0.6)"/>
</svg>
